# This file uses centimeters as units for non-parametric coordinates.

mtllib Flower2_NMTT_v1_low.mtl
g default
v -0.157649 0.222839 0.157111
v -0.314808 0.316021 0.220462
v -0.254190 0.167550 -0.001061
v -0.411349 0.260732 0.062291
v -0.208992 0.194948 0.057722
v -0.201258 0.202452 0.065436
v -0.165373 0.197655 0.053455
v -0.170997 0.192349 0.042133
v -0.171760 0.180563 0.046612
v -0.209276 0.184652 0.062997
v -0.165394 0.185220 0.060640
v -0.201078 0.187496 0.076504
v -0.123596 0.180452 0.048173
v -0.129510 0.174736 0.039876
v -0.128967 0.165933 0.043673
v -0.124308 0.166905 0.057990
v -0.080955 0.149425 0.047998
v -0.086440 0.143992 0.040521
v -0.086536 0.134806 0.042145
v -0.080428 0.136725 0.059983
v -0.059517 0.113056 0.052405
v -0.065122 0.107535 0.043471
v -0.068854 0.096249 0.047377
v -0.057916 0.099341 0.061825
v -0.036864 0.087435 0.040515
v -0.042263 0.080820 0.034552
v -0.043933 0.069877 0.036372
v -0.035909 0.076280 0.051822
v -0.005995 0.055144 0.026336
v -0.011410 0.049180 0.019320
v -0.019127 0.043523 0.022345
v -0.008444 0.046079 0.038105
v 0.010731 0.034591 0.014937
v 0.007267 0.032594 0.006126
v 0.004512 0.018787 0.000270
v 0.009270 0.022837 0.022419
v 0.017927 0.005892 -0.001329
v 0.017446 0.011007 -0.012743
v -0.002408 0.009678 -0.014946
v 0.000456 0.004098 0.009806
v 0.081036 0.419513 -0.224630
v 0.073720 0.412362 -0.235843
v 0.074080 0.437198 -0.252076
v 0.087111 0.442696 -0.242664
v 0.060599 0.421063 -0.223945
v 0.068712 0.447276 -0.235815
v 0.064529 0.413799 -0.236318
v 0.063395 0.439253 -0.242994
v 0.062376 0.390591 -0.189655
v 0.055755 0.381296 -0.202001
v 0.045405 0.384600 -0.201770
v 0.042375 0.391661 -0.189062
v 0.027971 0.368445 -0.104380
v 0.021530 0.355944 -0.117671
v 0.012369 0.363070 -0.115779
v 0.010989 0.367299 -0.103992
v 0.011664 0.336787 -0.072552
v 0.003613 0.326319 -0.086688
v -0.001992 0.332584 -0.086195
v -0.001559 0.338135 -0.074572
v -0.021967 0.237093 -0.048207
v -0.021615 0.241728 -0.064826
v -0.032508 0.247533 -0.058564
v -0.032605 0.250510 -0.047903
v -0.042712 0.125967 -0.055394
v -0.038569 0.120042 -0.069449
v -0.053060 0.130410 -0.071538
v -0.053636 0.127745 -0.056326
v 0.002475 0.015765 0.025455
v 0.010766 0.006583 0.015896
v -0.005808 0.009543 0.004894
v -0.011196 0.002000 0.019819
v -0.134139 0.243773 0.289610
v -0.102016 0.411283 0.077970
v -0.361657 0.061620 -0.060553
v -0.288834 0.030319 0.247205
v -0.239241 0.297061 -0.139922
v -0.202199 0.192415 0.062026
v -0.241273 0.230593 0.027394
v -0.208440 0.259375 0.079201
v -0.209630 0.214521 0.131419
v -0.240650 0.159872 0.120707
v -0.266953 0.175159 0.049098
v -0.193410 0.242540 0.198214
v -0.186989 0.324218 0.079194
v -0.268978 0.271531 -0.033727
v -0.327471 0.130761 0.023065
v -0.269303 0.125248 0.166676
v -0.024153 0.579260 -0.071075
v 0.252389 0.556883 -0.144485
v 0.011675 0.331544 -0.443236
v -0.185513 0.443525 -0.244676
v 0.272367 0.413964 -0.359050
v 0.076226 0.436992 -0.240339
v 0.116120 0.457587 -0.286901
v 0.119047 0.485962 -0.234511
v 0.043761 0.497205 -0.214268
v 0.004584 0.463760 -0.251819
v 0.060150 0.438877 -0.301667
v 0.017505 0.562687 -0.146362
v 0.182766 0.542852 -0.193160
v 0.203276 0.453447 -0.346272
v 0.025065 0.400691 -0.395253
v -0.069907 0.481119 -0.265010
v -0.142057 0.061469 -0.236802
v -0.271710 0.059918 0.033669
v -0.030966 0.008478 0.041850
v 0.007884 0.007676 -0.024006
v -0.321962 0.035395 -0.303906
v -0.430695 0.038472 -0.094581
v -0.449230 -0.007865 -0.287114
v -0.486813 -0.005297 -0.203551
v -0.067087 0.051398 -0.130404
v -0.151338 0.051023 0.037759
v -0.212804 0.058655 -0.270354
v -0.351489 0.056727 -0.004295
v -0.148929 0.205063 0.169903
v 0.150602 0.204316 0.171341
v 0.047846 0.012270 0.010931
v -0.028396 0.011641 0.004989
v -0.129897 0.324508 0.389079
v 0.105880 0.331242 0.394899
v -0.060249 0.404430 0.549900
v 0.031341 0.399278 0.546392
v -0.087816 0.131303 0.087649
v 0.100071 0.121783 0.091339
v -0.147473 0.266556 0.267023
v 0.152129 0.273202 0.278314
v 0.207849 0.210395 0.111603
v 0.144611 0.200172 -0.181662
v 0.000310 0.013216 -0.050169
v 0.010535 0.010606 0.025575
v 0.451929 0.314336 -0.065903
v 0.430902 0.308990 -0.155104
v 0.107622 0.122009 0.067929
v 0.070890 0.118202 -0.116576
v 0.306325 0.263490 0.090373
v 0.253205 0.259376 -0.204948
v 0.160869 0.438905 -0.215684
v 0.137094 0.607781 -0.306847
v -0.020446 0.389037 -0.260775
v -0.044222 0.557914 -0.351938
vt 0.124931 0.844382
vt 0.257549 0.844382
vt 0.124931 0.977001
vt 0.257550 0.977001
vt 0.092263 0.647125
vt 0.049186 0.653516
vt 0.053293 0.690055
vt 0.039546 0.689653
vt 0.084172 0.688166
vt 0.081090 0.647025
vt 0.068040 0.690696
vt 0.066092 0.650271
vt 0.055875 0.732772
vt 0.044383 0.731378
vt 0.085793 0.734334
vt 0.071466 0.738040
vt 0.055372 0.781277
vt 0.044721 0.781125
vt 0.088366 0.789861
vt 0.068830 0.791592
vt 0.054246 0.820985
vt 0.042320 0.821900
vt 0.081152 0.832413
vt 0.064028 0.832738
vt 0.045745 0.857319
vt 0.035502 0.858910
vt 0.078317 0.870034
vt 0.060468 0.864224
vt 0.042034 0.903305
vt 0.031821 0.905512
vt 0.074307 0.909900
vt 0.056493 0.905742
vt 0.040941 0.930301
vt 0.031912 0.932750
vt 0.072412 0.953892
vt 0.053275 0.937605
vt 0.033795 0.960474
vt 0.021352 0.959084
vt 0.069194 0.972910
vt 0.054428 0.959845
vt 0.928061 0.600457
vt 0.919908 0.600317
vt 0.918135 0.584972
vt 0.927735 0.584324
vt 0.915044 0.601015
vt 0.910491 0.587956
vt 0.938743 0.587051
vt 0.907298 0.602763
vt 0.927390 0.627747
vt 0.919161 0.625278
vt 0.913576 0.626133
vt 0.907418 0.630463
vt 0.924752 0.677304
vt 0.914533 0.675481
vt 0.908054 0.676216
vt 0.903232 0.680794
vt 0.924216 0.700636
vt 0.914899 0.703675
vt 0.910642 0.702110
vt 0.903748 0.702768
vt 0.927963 0.756935
vt 0.919191 0.754183
vt 0.911740 0.753208
vt 0.905951 0.752438
vt 0.930577 0.818927
vt 0.922460 0.820496
vt 0.915266 0.814763
vt 0.908379 0.818421
vt 0.936121 0.896145
vt 0.928145 0.898939
vt 0.919771 0.892247
vt 0.913272 0.898954
vt 0.609809 0.695161
vt 0.723204 0.707726
vt 0.688408 0.746481
vt 0.633984 0.745253
vt 0.649182 0.886917
vt 0.658826 0.827873
vt 0.700856 0.798629
vt 0.755758 0.819644
vt 0.563478 0.799386
vt 0.612168 0.790086
vt 0.662114 0.783350
vt 0.559773 0.627387
vt 0.775236 0.628920
vt 0.840690 0.842837
vt 0.663384 0.974932
vt 0.467189 0.817294
vt 0.243120 0.759484
vt 0.215274 0.625312
vt 0.285335 0.647261
vt 0.295908 0.707999
vt 0.444524 0.642710
vt 0.364483 0.656676
vt 0.327516 0.625785
vt 0.330961 0.546220
vt 0.375416 0.765728
vt 0.345431 0.714177
vt 0.323713 0.667739
vt 0.208144 0.818511
vt 0.154962 0.595741
vt 0.328651 0.482997
vt 0.509212 0.623817
vt 0.423969 0.848055
vt 0.207273 0.543638
vt 0.133936 0.547178
vt 0.077143 0.428197
vt 0.257710 0.431836
vt 0.020268 0.316492
vt 0.023438 0.241326
vt 0.311535 0.242559
vt 0.308069 0.327379
vt 0.043891 0.131307
vt 0.114993 0.022387
vt 0.202809 0.028286
vt 0.270394 0.133406
vt 0.875776 0.592304
vt 0.812025 0.594498
vt 0.764548 0.472359
vt 0.921320 0.479764
vt 0.715986 0.378913
vt 0.719769 0.283099
vt 0.969870 0.278874
vt 0.965756 0.384928
vt 0.737413 0.170828
vt 0.799404 0.022605
vt 0.875695 0.029151
vt 0.934209 0.169255
vt 0.558734 0.547842
vt 0.487210 0.555609
vt 0.424648 0.425228
vt 0.601599 0.420449
vt 0.361116 0.309227
vt 0.358769 0.202125
vt 0.640782 0.189167
vt 0.643507 0.307536
vt 0.557047 0.030071
vt 0.470698 0.028524
vt 0.610319 0.450538
vt 0.737529 0.450538
vt 0.737529 0.577747
vt 0.610319 0.577747
vt 0.935979 0.816994
vt 0.946892 0.897017
vt 0.935099 0.751028
vt 0.931449 0.701641
vt 0.933054 0.681047
vt 0.937237 0.632149
vt 0.938422 0.604103
vt 0.904235 0.586201
vt 0.082790 0.940800
vt 0.084704 0.969181
vt 0.083678 0.912604
vt 0.088492 0.864650
vt 0.091182 0.826581
vt 0.094691 0.782720
vt 0.093991 0.729416
vt 0.096719 0.686510
vt 0.036341 0.650473
vn -0.300466 -0.828288 0.472926
vn -0.300466 -0.828288 0.472926
vn -0.300466 -0.828288 0.472926
vn -0.300466 -0.828288 0.472926
vn -0.381442 0.178145 -0.907065
vn 0.173000 0.962606 0.208474
vn -0.085939 0.410354 -0.907868
vn 0.328409 0.924484 0.193589
vn -0.270641 -0.894361 -0.356192
vn -0.222587 -0.934917 -0.276378
vn 0.313265 -0.438672 0.842278
vn 0.154761 -0.334374 0.929647
vn 0.131831 0.300051 -0.944770
vn 0.491946 0.851754 0.180289
vn -0.474985 -0.845714 -0.243221
vn -0.110581 -0.228295 0.967292
vn 0.313479 0.254812 -0.914769
vn 0.672332 0.732781 0.104889
vn -0.740167 -0.670830 -0.046251
vn -0.283978 -0.169122 0.943798
vn 0.821414 0.570019 0.018899
vn 0.152928 0.206430 -0.966437
vn -0.811943 -0.566507 0.140778
vn -0.102418 -0.244415 0.964247
vn 0.718310 0.690268 -0.086956
vn -0.128938 0.272948 -0.953349
vn -0.721440 -0.691033 0.044703
vn 0.160999 -0.254364 0.953613
vn 0.738633 0.673448 -0.029816
vn -0.068249 0.441342 -0.894740
vn -0.736993 -0.675792 0.012144
vn 0.106196 -0.403539 0.908779
vn 0.885954 0.442585 0.138581
vn 0.169828 0.613278 -0.771394
vn -0.933741 0.217406 -0.284362
vn 0.070852 -0.665857 0.742708
vn 0.928457 -0.067708 0.365217
vn 0.582015 0.751238 -0.311287
vn -0.492724 0.826924 -0.270961
vn -0.469969 -0.305720 0.828048
vn 0.581403 -0.623048 -0.523242
vn 0.199230 -0.624148 -0.755477
vn 0.840489 0.120892 0.528171
vn 0.965069 -0.053349 0.256507
vn -0.941895 -0.063291 -0.329891
vn -0.631401 -0.319158 -0.706732
vn -0.572022 0.664861 0.480365
vn -0.008327 0.541120 0.840904
vn 0.433800 -0.869627 -0.235725
vn 0.849579 0.169521 0.499478
vn -0.717504 -0.471713 -0.512518
vn -0.485256 0.864627 0.130176
vn 0.458669 -0.871619 -0.172927
vn 0.749627 0.459620 0.476245
vn -0.890237 -0.136855 -0.434453
vn -0.424521 0.853257 0.302877
vn 0.829411 -0.050561 0.556346
vn 0.692956 -0.493836 -0.525298
vn -0.902931 0.112007 -0.414935
vn -0.626226 0.503837 0.594970
vn 0.707785 -0.151449 0.690002
vn 0.553961 -0.169417 -0.815122
vn -0.840376 0.165441 -0.516136
vn -0.495153 0.246000 0.833251
vn 0.684693 0.289650 0.668804
vn 0.670206 -0.222750 -0.707959
vn -0.654952 -0.114770 -0.746904
vn -0.909598 -0.071136 0.409354
vn 0.082593 0.621790 0.778817
vn 0.944061 0.241957 -0.224065
vn -0.115104 -0.576180 -0.809177
vn -0.849708 0.077863 0.521473
vn -0.733248 0.642990 0.221160
vn -0.951281 0.187167 0.245015
vn -0.743040 0.540082 0.395226
vn -0.922911 0.384088 -0.026666
vn -0.909843 0.346086 0.228933
vn -0.582389 0.652291 0.485117
vn -0.827410 0.560592 0.033607
vn -0.737778 0.280167 0.614158
vn -0.791618 0.499830 0.351442
vn -0.659702 0.746147 0.089766
vn -0.814220 0.447628 0.369696
vn -0.718464 0.550834 0.424725
vn -0.694016 0.681939 0.230872
vn -0.808837 0.585447 -0.055086
vn -0.947450 0.307490 0.088249
vn -0.830389 0.428919 0.355644
vn -0.082570 0.912830 -0.399904
vn 0.050792 0.866358 -0.496833
vn 0.038432 0.677051 -0.734932
vn -0.310848 0.684297 -0.659629
vn -0.135830 0.727678 -0.672336
vn -0.008671 0.947874 -0.318527
vn 0.097949 0.742308 -0.662861
vn -0.333806 0.848054 -0.411556
vn -0.264647 0.791857 -0.550385
vn 0.306870 0.811082 -0.497973
vn -0.088302 0.833471 -0.545462
vn -0.194099 0.932570 -0.304368
vn 0.138598 0.888995 -0.436438
vn 0.223375 0.677158 -0.701113
vn -0.173341 0.600006 -0.780990
vn -0.344589 0.766487 -0.541992
vn 0.322459 0.929525 0.178896
vn 0.317845 0.933858 0.163961
vn 0.157066 0.984200 0.081732
vn 0.144178 0.986660 0.075599
vn 0.019785 0.999688 0.015217
vn -0.102287 0.993331 -0.053213
vn 0.011114 0.999881 0.010689
vn -0.091730 0.994956 -0.040603
vn -0.337796 0.923785 -0.180319
vn -0.342950 0.919860 -0.190377
vn -0.225563 0.965413 -0.130764
vn -0.208855 0.971717 -0.110207
vn 0.059021 0.572366 -0.817872
vn 0.048250 0.580805 -0.812611
vn 0.048357 0.642921 -0.764404
vn 0.022940 0.689653 -0.723777
vn 0.004846 0.808267 -0.588796
vn -0.002675 0.871081 -0.491132
vn 0.011088 0.801868 -0.597398
vn -0.000470 0.867203 -0.497955
vn 0.032560 0.889348 -0.456071
vn -0.004003 0.904753 -0.425918
vn -0.012148 0.904935 -0.425377
vn -0.009676 0.901858 -0.431925
vn -0.784200 0.607414 0.126802
vn -0.774683 0.617074 0.138155
vn -0.721407 0.680452 0.128676
vn -0.713853 0.688388 0.128592
vn -0.562564 0.821544 0.092668
vn -0.382872 0.922147 0.055259
vn -0.552954 0.828222 0.091048
vn -0.387868 0.920039 0.055555
vn -0.270490 0.962704 0.006059
vn -0.288927 0.956719 0.034776
vn -0.325201 0.413345 0.850523
vn -0.325201 0.413345 0.850523
vn -0.325201 0.413345 0.850523
vn -0.325201 0.413345 0.850524
s 1
g pPlane3
usemtl initialShadingGroup
f 1/1/1 2/2/2 3/3/3
f 3/3/3 2/2/2 4/4/4
s 2
f 5/159/5 6/6/6 8/8/7
f 8/8/7 6/6/6 7/7/8
f 8/158/7 9/9/9 5/5/5
f 5/5/5 9/9/9 10/10/10
f 10/10/10 9/9/9 12/12/11
f 12/12/11 9/9/9 11/11/12
f 7/7/8 6/6/6 11/11/12
f 11/11/12 6/6/6 12/12/11
f 8/8/7 7/7/8 14/14/13
f 14/14/13 7/7/8 13/13/14
f 8/158/7 14/157/13 9/9/9
f 9/9/9 14/157/13 15/15/15
f 9/9/9 15/15/15 11/11/12
f 11/11/12 15/15/15 16/16/16
f 7/7/8 11/11/12 13/13/14
f 13/13/14 11/11/12 16/16/16
f 14/14/13 13/13/14 18/18/17
f 18/18/17 13/13/14 17/17/18
f 14/157/13 18/156/17 15/15/15
f 15/15/15 18/156/17 19/19/19
f 15/15/15 19/19/19 16/16/16
f 16/16/16 19/19/19 20/20/20
f 13/13/14 16/16/16 17/17/18
f 17/17/18 16/16/16 20/20/20
f 17/17/18 21/21/21 18/18/17
f 18/18/17 21/21/21 22/22/22
f 18/156/17 22/155/22 19/19/19
f 19/19/19 22/155/22 23/23/23
f 19/19/19 23/23/23 20/20/20
f 20/20/20 23/23/23 24/24/24
f 17/17/18 20/20/20 21/21/21
f 21/21/21 20/20/20 24/24/24
f 21/21/21 25/25/25 22/22/22
f 22/22/22 25/25/25 26/26/26
f 22/155/22 26/154/26 23/23/23
f 23/23/23 26/154/26 27/27/27
f 24/24/24 23/23/23 28/28/28
f 28/28/28 23/23/23 27/27/27
f 21/21/21 24/24/24 25/25/25
f 25/25/25 24/24/24 28/28/28
f 25/25/25 29/29/29 26/26/26
f 26/26/26 29/29/29 30/30/30
f 26/154/26 30/153/30 27/27/27
f 27/27/27 30/153/30 31/31/31
f 28/28/28 27/27/27 32/32/32
f 32/32/32 27/27/27 31/31/31
f 25/25/25 28/28/28 29/29/29
f 29/29/29 28/28/28 32/32/32
f 29/29/29 33/33/33 30/30/30
f 30/30/30 33/33/33 34/34/34
f 30/153/30 34/151/34 31/31/31
f 31/31/31 34/151/34 35/35/35
f 32/32/32 31/31/31 36/36/36
f 36/36/36 31/31/31 35/35/35
f 29/29/29 32/32/32 33/33/33
f 33/33/33 32/32/32 36/36/36
f 33/33/33 37/37/37 34/34/34
f 34/34/34 37/37/37 38/38/38
f 34/151/34 38/152/38 35/35/35
f 35/35/35 38/152/38 39/39/39
f 36/36/36 35/35/35 40/40/40
f 40/40/40 35/35/35 39/39/39
f 33/33/33 36/36/36 37/37/37
f 37/37/37 36/36/36 40/40/40
s 3
f 42/42/41 43/43/42 41/41/43
f 41/41/43 43/43/42 44/44/44
f 43/43/42 42/42/41 48/46/45
f 48/46/45 42/42/41 47/45/46
f 45/149/47 41/41/43 46/47/48
f 46/47/48 41/41/43 44/44/44
f 47/45/46 45/48/47 48/46/45
f 48/46/45 45/48/47 46/150/48
f 42/42/41 41/41/43 50/50/49
f 50/50/49 41/41/43 49/49/50
f 42/42/41 50/50/49 47/45/46
f 47/45/46 50/50/49 51/51/51
f 41/41/43 45/149/47 49/49/50
f 49/49/50 45/149/47 52/148/52
f 47/45/46 51/51/51 45/48/47
f 45/48/47 51/51/51 52/52/52
f 50/50/49 49/49/50 54/54/53
f 54/54/53 49/49/50 53/53/54
f 50/50/49 54/54/53 51/51/51
f 51/51/51 54/54/53 55/55/55
f 49/49/50 52/148/52 53/53/54
f 53/53/54 52/148/52 56/147/56
f 51/51/51 55/55/55 52/52/52
f 52/52/52 55/55/55 56/56/56
f 53/53/54 57/57/57 54/54/53
f 54/54/53 57/57/57 58/58/58
f 55/55/55 54/54/53 59/59/59
f 59/59/59 54/54/53 58/58/58
f 53/53/54 56/147/56 57/57/57
f 57/57/57 56/147/56 60/146/60
f 55/55/55 59/59/59 56/56/56
f 56/56/56 59/59/59 60/60/60
f 57/57/57 61/61/61 58/58/58
f 58/58/58 61/61/61 62/62/62
f 59/59/59 58/58/58 63/63/63
f 63/63/63 58/58/58 62/62/62
f 60/146/60 64/145/64 57/57/57
f 57/57/57 64/145/64 61/61/61
f 60/60/60 59/59/59 64/64/64
f 64/64/64 59/59/59 63/63/63
f 61/61/61 65/65/65 62/62/62
f 62/62/62 65/65/65 66/66/66
f 63/63/63 62/62/62 67/67/67
f 67/67/67 62/62/62 66/66/66
f 64/145/64 68/143/68 61/61/61
f 61/61/61 68/143/68 65/65/65
f 64/64/64 63/63/63 68/68/68
f 68/68/68 63/63/63 67/67/67
f 65/65/65 69/69/69 66/66/66
f 66/66/66 69/69/69 70/70/70
f 67/67/67 66/66/66 71/71/71
f 71/71/71 66/66/66 70/70/70
f 68/143/68 72/144/72 65/65/65
f 65/65/65 72/144/72 69/69/69
f 67/67/67 71/71/71 68/68/68
f 68/68/68 71/71/71 72/72/72
s 5
f 85/74/73 80/75/74 84/73/75
f 84/73/75 80/75/74 81/76/76
f 87/77/77 83/78/78 86/80/79
f 86/80/79 83/78/78 79/79/80
f 80/75/74 85/74/73 79/79/80
f 79/79/80 85/74/73 86/80/79
f 84/73/75 81/76/76 88/81/81
f 88/81/81 81/76/76 82/82/82
f 82/82/82 83/78/78 88/81/81
f 88/81/81 83/78/78 87/77/77
f 78/83/83 80/75/74 79/79/80
f 81/76/76 80/75/74 78/83/83
f 82/82/82 81/76/76 78/83/83
f 83/78/78 82/82/82 78/83/83
f 79/79/80 83/78/78 78/83/83
f 73/84/84 74/85/85 84/73/75
f 84/73/75 74/85/85 85/74/73
f 86/80/79 85/74/73 77/86/86
f 77/86/86 85/74/73 74/85/85
f 87/77/77 86/80/79 75/87/87
f 75/87/87 86/80/79 77/86/86
f 88/81/81 87/77/77 76/88/88
f 76/88/88 87/77/77 75/87/87
f 84/73/75 88/81/81 73/84/84
f 73/84/84 88/81/81 76/88/88
s 7
f 100/89/89 101/90/90 97/92/91
f 97/92/91 101/90/90 96/91/92
f 103/93/93 99/94/94 102/96/95
f 102/96/95 99/94/94 95/95/96
f 96/91/92 101/90/90 95/95/96
f 95/95/96 101/90/90 102/96/95
f 100/89/89 97/92/91 104/97/97
f 104/97/97 97/92/91 98/98/98
f 98/98/98 99/94/94 104/97/97
f 104/97/97 99/94/94 103/93/93
f 94/99/99 96/91/92 95/95/96
f 97/92/91 96/91/92 94/99/99
f 98/98/98 97/92/91 94/99/99
f 99/94/94 98/98/98 94/99/99
f 95/95/96 99/94/94 94/99/99
f 89/100/100 90/101/101 100/89/89
f 100/89/89 90/101/101 101/90/90
f 102/96/95 101/90/90 93/102/102
f 93/102/102 101/90/90 90/101/101
f 103/93/93 102/96/95 91/103/103
f 91/103/103 102/96/95 93/102/102
f 92/104/104 104/97/97 91/103/103
f 91/103/103 104/97/97 103/93/93
f 100/89/89 104/97/97 89/100/100
f 89/100/100 104/97/97 92/104/104
s 10
f 107/105/105 108/106/106 114/108/107
f 114/108/107 108/106/106 113/107/108
f 105/109/109 115/110/110 106/112/111
f 106/112/111 115/110/110 116/111/112
f 111/114/113 112/115/114 109/113/115
f 109/113/115 112/115/114 110/116/116
f 105/109/109 106/112/111 113/107/108
f 113/107/108 106/112/111 114/108/107
f 109/113/115 110/116/116 115/110/110
f 115/110/110 110/116/116 116/111/112
s 13
f 119/117/117 120/118/118 126/120/119
f 126/120/119 120/118/118 125/119/120
f 117/121/121 127/122/122 118/124/123
f 118/124/123 127/122/122 128/123/124
f 123/126/125 124/127/126 121/125/127
f 121/125/127 124/127/126 122/128/128
f 117/121/121 118/124/123 125/119/120
f 125/119/120 118/124/123 126/120/119
f 121/125/127 122/128/128 127/122/122
f 127/122/122 122/128/128 128/123/124
s 16
f 131/129/129 132/130/130 136/132/131
f 136/132/131 132/130/130 135/131/132
f 129/133/133 137/134/134 130/136/135
f 130/136/135 137/134/134 138/135/136
f 129/133/133 130/136/135 135/131/132
f 135/131/132 130/136/135 136/132/131
f 134/137/137 138/135/136 133/138/138
f 133/138/138 138/135/136 137/134/134
s 18
f 139/139/139 140/140/140 141/142/141
f 141/142/141 140/140/140 142/141/142
