# This file uses centimeters as units for non-parametric coordinates.

mtllib tutorial_rock_NMTT_v1_low.mtl
g default
v 0.959915 0.443662 0.447226
v 0.643247 0.520079 0.605675
v 0.680079 0.207536 0.655481
v 0.879141 0.204402 0.536745
v 0.522174 0.000000 0.667633
v 0.318482 0.287714 0.691610
v 0.150967 0.000000 0.693171
v 0.595027 0.144645 0.676770
v 0.458824 0.398464 0.661962
v 0.830291 0.490621 0.554111
v 0.792227 0.221544 0.613441
v 1.015968 0.528939 0.288929
v 0.910700 0.726332 0.378545
v 0.943527 0.755550 0.087014
v 1.015063 0.508774 0.117383
v 0.979542 0.367062 -0.031305
v 0.892974 0.537971 -0.153494
v 0.927670 0.201227 -0.101723
v 0.818282 0.244190 -0.270302
v 0.808917 0.000000 -0.101644
v 0.655295 0.000000 -0.299072
v -0.591491 0.212449 0.605871
v -0.541451 0.000000 0.544383
v -0.206920 0.000000 0.661808
v -0.297587 0.276830 0.666332
v -0.691489 0.334092 0.551081
v -0.465704 0.487493 0.585787
v -0.725513 0.625785 0.403013
v -0.816796 0.391166 0.395193
v -0.847638 0.522195 0.110868
v -0.871496 0.321811 0.246641
v -0.808137 0.364296 -0.100797
v -0.832186 0.166305 0.136510
v -0.648926 0.000000 -0.121841
v -0.738828 0.000000 0.176942
v 0.174019 0.621647 0.627328
v 0.513466 0.830765 0.530612
v -0.219547 0.695031 0.572382
v -0.586033 0.828541 0.387537
v 0.777861 1.045922 0.187020
v 0.303863 1.177406 0.373713
v 0.323796 0.951553 0.509741
v -0.035767 1.043546 0.331194
v -0.545040 0.928556 0.184134
v 0.660854 0.784447 -0.282660
v 0.539466 0.435905 -0.468480
v 0.428089 0.000000 -0.471365
v 0.071479 0.000000 -0.561137
v 0.079523 0.414168 -0.574427
v -0.398786 0.000000 -0.413202
v -0.469242 0.385000 -0.470270
v 0.110914 0.804167 -0.449062
v -0.356258 0.790419 -0.326979
v -0.390422 0.921177 -0.035131
v 0.038482 1.083747 0.059030
v 0.369120 1.273012 0.028792
v 0.399756 0.822936 -0.398070
v 0.311048 0.428093 -0.544178
v 0.250969 0.000000 -0.538883
v -0.686877 0.688243 -0.126131
v -0.665760 0.379148 -0.316969
v -0.554566 0.000000 -0.273984
v 0.544711 1.167462 0.325848
v 0.595227 1.205385 0.099353
v 0.535389 0.809027 -0.348654
v 0.916561 0.142973 0.719684
v 0.980320 0.147788 0.584308
v 0.775416 0.134570 0.796175
v 0.676360 0.093641 0.796497
v 0.661546 0.000000 0.804047
v 0.993367 0.000000 0.738774
v 1.069505 0.000000 0.590875
v 0.791713 0.000000 0.835253
v 1.052753 0.281170 0.551926
v 1.127006 0.000000 0.570176
v 1.195082 0.490413 0.351047
v 1.209859 0.441366 0.154800
v 1.195886 0.320222 0.021032
v 1.154269 0.167827 -0.080367
v 1.133339 0.000000 -0.122560
v 1.321037 0.161527 0.097618
v 1.321071 0.000000 0.060322
v 1.317122 0.247622 0.141966
v 1.306106 0.345594 0.239346
v 1.266146 0.355619 0.415541
v 1.366221 0.113958 0.274886
v 1.374493 0.000000 0.272680
v 1.350278 0.202377 0.295944
v 1.328455 0.273261 0.325610
v 1.289623 0.246268 0.437547
v 1.313536 0.086793 0.435743
v 1.314947 0.000000 0.437896
v 1.306226 0.165577 0.435405
v 1.165314 0.241927 0.543052
v 1.202019 0.178491 0.534814
v 1.222911 0.066230 0.528123
v 1.218247 0.000000 0.529606
v 1.218937 0.120668 0.529294
v -1.081407 0.328823 0.325110
v -1.042472 0.381282 0.467839
v -1.074275 0.168413 0.201882
v -1.034199 0.000000 0.205836
v -0.922277 0.327523 0.647733
v -0.802959 0.195323 0.729699
v -0.724712 0.000000 0.728672
v -1.014534 0.144772 0.723113
v -0.977749 0.000000 0.734407
v -1.053414 0.261075 0.662815
v -1.154573 0.291241 0.516522
v -1.185347 0.237554 0.391707
v -1.166834 0.125886 0.312696
v -1.125452 0.000000 0.305967
v -1.133437 0.119760 0.624245
v -1.117526 0.000000 0.603148
v -1.150085 0.000000 0.482000
v -1.191150 0.124292 0.488353
v 0.157442 0.000000 0.287539
v -0.128256 0.000000 0.187890
v -0.517283 0.000000 0.167314
v 0.463237 0.000000 0.260225
vt 0.834072 0.452396
vt 0.864439 0.653433
vt 0.101865 0.162037
vt 0.171187 0.113110
vt 0.793157 0.665814
vt 0.012161 0.185778
vt 0.791523 0.411620
vt 0.065408 0.175500
vt 0.767332 0.553545
vt 0.817039 0.548681
vt 0.137028 0.136053
vt 0.832404 0.396125
vt 0.851397 0.775027
vt 0.818211 0.346995
vt 0.617652 0.173627
vt 0.599693 0.266161
vt 0.784976 0.299190
vt 0.750032 0.263560
vt 0.594530 0.356811
vt 0.576613 0.438433
vt 0.718554 0.215370
vt 0.567118 0.597079
vt 0.597155 0.026380
vt 0.549247 0.044462
vt 0.775105 0.370272
vt 0.638013 0.468989
vt 0.638239 0.014453
vt 0.155839 0.834561
vt 0.695620 0.006580
vt 0.061508 0.289928
vt 0.744713 0.014600
vt 0.101953 0.353152
vt 0.794417 0.025942
vt 0.110980 0.464413
vt 0.023219 0.446703
vt 0.676051 0.525784
vt 0.631224 0.636702
vt 0.480360 0.488697
vt 0.231801 0.893242
vt 0.551993 0.089886
vt 0.392864 0.013636
vt 0.715951 0.549107
vt 0.282242 0.053248
vt 0.149592 0.155503
vt 0.512697 0.234611
vt 0.494456 0.343159
vt 0.494338 0.463446
vt 0.373881 0.376255
vt 0.381346 0.482703
vt 0.230769 0.484562
vt 0.228775 0.379531
vt 0.368959 0.268759
vt 0.248649 0.266767
vt 0.215299 0.189253
vt 0.324561 0.117462
vt 0.421833 0.098485
vt 0.439011 0.249731
vt 0.433818 0.362019
vt 0.437244 0.475765
vt 0.149173 0.273511
vt 0.167035 0.368247
vt 0.165249 0.475055
vt 0.473989 0.025617
vt 0.482126 0.089548
vt 0.476277 0.242785
vt 0.117531 0.078489
vt 0.779096 0.521141
vt 0.078026 0.107823
vt 0.052605 0.127679
vt 0.022305 0.121448
vt 0.158000 0.011369
vt 0.104488 0.027082
vt 0.043047 0.076288
vt 0.788217 0.485294
vt 0.722752 0.521058
vt 0.748079 0.338598
vt 0.716516 0.308118
vt 0.680242 0.287140
vt 0.663235 0.356355
vt 0.701783 0.366087
vt 0.722431 0.375101
vt 0.747018 0.394335
vt 0.760506 0.431527
vt 0.666083 0.418897
vt 0.693855 0.413688
vt 0.715696 0.413866
vt 0.733808 0.416771
vt 0.738307 0.444280
vt 0.684285 0.466857
vt 0.702912 0.457641
vt 0.720041 0.450471
vt 0.760413 0.474232
vt 0.742799 0.477910
vt 0.717625 0.489176
vt 0.705198 0.499187
vt 0.728928 0.482576
vt 0.731500 0.056854
vt 0.701361 0.055977
vt 0.767892 0.069861
vt 0.796597 0.090658
vt 0.659601 0.060299
vt 0.623025 0.071306
vt 0.584435 0.091698
vt 0.635234 0.132561
vt 0.653636 0.107332
vt 0.672003 0.087836
vt 0.703934 0.084931
vt 0.727936 0.087356
vt 0.752100 0.097856
vt 0.770932 0.117099
vt 0.688426 0.146718
vt 0.686280 0.119586
vt 0.717625 0.115675
vt 0.725683 0.141288
vt 0.900148 0.151225
vt 0.876823 0.180736
vt 0.714005 0.681437
vt 0.924123 0.708764
vt 0.311846 0.631762
vt 0.181692 0.634618
vt 0.179454 0.539276
vt 0.329164 0.512925
vt 0.257713 0.733586
vt 0.146891 0.699428
vt 0.081318 0.766725
vt 0.528246 0.744944
vt 0.678927 0.820264
vt 0.375156 0.803377
vt 0.953680 0.838144
vt 0.842230 0.938579
vt 0.608887 0.881093
vt 0.722426 0.978269
vt 0.618279 0.989761
vt 0.463594 0.972894
vt 0.234940 0.990483
vt 0.164631 0.069274
vt 0.812945 0.522940
vt 0.032341 0.392929
vt 0.010817 0.338880
vt 0.648430 0.347279
vt 0.654780 0.290849
vt 0.991140 0.735261
vt 0.829434 0.163478
vt 0.847674 0.122709
vt 0.918388 0.106361
vt 0.875074 0.088186
vt 0.860878 0.059161
vt 0.870496 0.029202
vt 0.891600 0.018120
vt 0.926834 0.029276
vt 0.934886 0.044068
vt 0.926267 0.079942
vt 0.907156 0.019223
vt 0.957711 0.102656
vt 0.971747 0.119929
vt 0.981766 0.143891
vt 0.980019 0.205153
vt 0.970104 0.225335
vt 0.817337 0.208125
vt 0.867594 0.217770
vt 0.954969 0.243395
vt 0.786682 0.232972
vt 0.795643 0.218949
vt 0.789816 0.260585
vt 0.885310 0.312060
vt 0.856190 0.326676
vt 0.829070 0.324315
vt 0.896047 0.273097
vt 0.812083 0.310600
vt 0.805242 0.295511
vt 0.804094 0.275545
vt 0.804186 0.283142
vt 0.925488 0.263080
vt 0.670077 0.230620
vt 0.034962 0.895348
vt 0.013005 0.793867
vt 0.836637 0.035917
vt 0.646422 0.415419
vt 0.734052 0.532020
vn 0.737724 0.205590 0.643036
vn 0.487888 0.296722 0.820927
vn 0.452040 0.134911 0.881736
vn 0.656625 0.066483 0.751282
vn -0.010346 0.098387 0.995094
vn 0.067451 -0.003842 0.997715
vn 0.105488 0.077208 0.991419
vn 0.065092 0.194542 0.978732
vn -0.037530 -0.003386 0.999290
vn 0.224205 0.168083 0.959937
vn 0.245183 0.309092 0.918884
vn 0.899632 0.339443 0.274665
vn 0.659508 0.492627 0.567774
vn 0.939743 0.273576 -0.205034
vn 0.829148 0.530320 -0.176843
vn 0.739302 0.272759 -0.615659
vn 0.871414 0.095474 -0.481168
vn 0.794084 -0.199659 -0.574079
vn 0.661958 -0.077872 -0.745485
vn 0.580862 -0.230175 -0.780781
vn 0.714697 -0.415841 -0.562392
vn -0.130741 0.076062 0.988495
vn -0.254257 -0.013585 0.967041
vn -0.247953 -0.199217 0.948067
vn -0.114404 -0.056681 0.991816
vn -0.267730 0.292923 0.917887
vn -0.420169 0.281886 0.862553
vn -0.682763 0.479111 0.551623
vn -0.777231 0.345485 0.525882
vn -0.907326 0.398736 -0.133301
vn -0.993089 0.116955 0.009784
vn -0.903979 -0.043630 -0.425344
vn -0.908164 -0.301977 -0.289910
vn -0.822375 -0.353946 -0.445446
vn -0.846528 -0.415130 -0.333255
vn -0.008725 0.262680 0.964843
vn 0.314251 0.416013 0.853334
vn -0.188848 0.466295 0.864237
vn -0.462665 0.651004 0.601777
vn 0.748045 0.661017 0.059042
vn 0.000703 0.480615 0.876931
vn 0.369375 0.703876 0.606729
vn -0.232827 0.836953 0.495279
vn -0.304973 0.836610 0.455056
vn -0.508334 0.843302 0.174463
vn 0.631440 0.424165 -0.649128
vn 0.501695 0.069737 -0.862229
vn 0.437630 -0.123926 -0.890574
vn -0.123628 0.143425 -0.981909
vn 0.225319 0.126329 -0.966060
vn 0.226559 -0.049838 -0.972722
vn -0.133827 -0.084288 -0.987414
vn -0.349815 -0.145991 -0.925374
vn -0.380516 0.130722 -0.915489
vn -0.721314 0.095750 -0.685957
vn -0.706294 -0.275112 -0.652275
vn -0.162745 0.608744 -0.776495
vn 0.036695 0.647128 -0.761498
vn -0.297703 0.625516 -0.721182
vn -0.695934 0.550243 -0.461420
vn -0.337466 0.889746 -0.307358
vn -0.285845 0.901826 -0.324040
vn -0.067078 0.912371 -0.403830
vn 0.462668 0.807767 -0.365310
vn 0.442099 0.528244 -0.724919
vn 0.221597 0.904790 0.363663
vn 0.493295 0.640493 0.588582
vn 0.649076 0.680978 0.339071
vn 0.385555 0.895611 0.221873
vn -0.088272 0.849868 0.519550
vn 0.125557 0.624805 0.770619
vn -0.574250 0.488812 0.656733
vn -0.469826 0.426523 0.772878
vn -0.706655 0.255589 0.659783
vn -0.538417 0.245765 0.806044
vn 0.782532 0.481560 0.394645
vn 0.656393 0.431162 0.619069
vn 0.254764 0.293963 0.921239
vn 0.058519 0.682980 0.728089
vn -0.250981 0.392625 0.884791
vn -0.010933 0.283746 0.958837
vn 0.052735 0.480211 0.875566
vn 0.240767 0.147237 0.959350
vn 0.240249 0.111777 0.964254
vn 0.428243 0.830965 0.355112
vn 0.246080 0.930576 0.271059
vn 0.544883 0.744693 -0.385403
vn 0.335500 0.814783 -0.472831
vn 0.489794 0.493180 -0.718941
vn 0.274182 0.530602 -0.802051
vn 0.379040 0.231720 -0.895899
vn 0.086828 0.224004 -0.970713
vn 0.300225 0.124109 -0.945760
vn 0.007496 0.110573 -0.993840
vn 0.824912 0.105624 -0.555305
vn 0.839561 0.164411 -0.517790
vn 0.846348 0.321966 -0.424303
vn 0.859770 0.492770 -0.134065
vn 0.620910 0.569695 0.538440
vn 0.997911 0.058859 -0.026620
vn 0.995733 0.090767 -0.016631
vn 0.981808 0.180300 0.059539
vn 0.941099 0.294160 0.166738
vn 0.790813 0.258148 0.554954
vn 0.875301 0.030133 0.482639
vn 0.877784 0.052235 0.476200
vn 0.858505 0.113324 0.500126
vn 0.324718 0.351133 0.878216
vn 0.414245 0.142164 0.898994
vn 0.602266 0.020643 0.798028
vn 0.630598 -0.000654 0.776109
vn 0.588649 0.062629 0.805959
vn -0.205377 0.734870 -0.646364
vn -0.413062 0.740722 -0.529821
vn -0.234819 0.968507 0.082794
vn -0.006654 0.999121 0.041384
vn -0.212010 0.086194 -0.973459
vn -0.418193 0.202717 -0.885449
vn -0.170152 -0.195895 -0.965750
vn -0.331474 -0.203123 -0.921339
vn 0.001463 0.811608 0.584201
vn 0.212642 0.820296 0.530941
vn 0.270730 0.312241 0.910610
vn 0.531030 0.292874 0.795130
vn 0.423794 0.060024 0.903767
vn 0.611795 0.071704 0.787760
vn -0.206600 -0.027840 0.978029
vn -0.317677 0.141370 0.937601
vn -0.453748 0.528713 0.717339
vn -0.739693 0.603711 0.297301
vn -0.895512 0.375937 -0.238179
vn -0.903857 -0.008193 -0.427757
vn -0.862498 -0.256153 -0.436444
vn -0.793620 -0.204864 0.572886
vn -0.789884 -0.006798 0.613218
vn -0.988047 -0.118483 0.098616
vn -0.955849 -0.288551 0.055591
vn 0.000000 -1.000000 0.000000
vn 0.000000 -1.000000 -0.000000
vn 0.000000 -1.000000 -0.000000
vn 0.000000 -1.000000 -0.000000
vn 0.000000 -1.000000 -0.000000
vn 0.000000 -1.000000 0.000000
vn 0.000000 -1.000000 -0.000000
vn 0.000000 -1.000000 -0.000000
vn 0.000000 -1.000000 0.000000
vn 0.000000 -1.000000 0.000000
vn 0.000000 -1.000000 0.000000
vn 0.000000 -1.000000 0.000000
vn 0.000000 -1.000000 0.000000
vn 0.000000 -1.000000 -0.000000
vn 0.000000 -1.000000 0.000000
vn 0.000000 -1.000000 0.000000
vn 0.000000 -1.000000 0.000000
vn 0.000000 -1.000000 0.000000
vn 0.000000 -1.000000 0.000000
vn 0.000000 -1.000000 0.000000
vn 0.000000 -1.000000 0.000000
vn 0.000000 -1.000000 -0.000000
vn 0.000000 -1.000000 -0.000000
vn 0.000000 -1.000000 0.000000
vn 0.000000 -1.000000 0.000000
vn 0.000000 -1.000000 0.000000
vn 0.000000 -1.000000 0.000000
vn 0.000000 -1.000000 0.000000
vn 0.000000 -1.000000 0.000000
vn 0.000000 -1.000000 0.000000
vn 0.000000 -1.000000 0.000000
vn 0.000000 -1.000000 0.000000
vn 0.000000 -1.000000 0.000000
s 1
g polySurface1
usemtl initialShadingGroup
f 1/2/1 10/5/2 11/9/3 4/10/4
f 6/22/5 5/26/6 8/36/7 9/37/8
f 7/38/9 5/26/6 6/22/5
f 9/37/8 8/36/7 3/42/10 2/117/11
f 11/9/3 10/5/2 2/117/11 3/42/10
f 1/2/1 12/118/12 13/13/13 10/5/2
f 15/142/14 14/129/15 13/13/13 12/118/12
f 17/16/16 14/15/15 15/174/14 16/141/17
f 16/141/17 18/140/18 19/19/19 17/16/16
f 21/20/20 19/19/19 18/140/18 20/178/21
f 25/119/22 22/120/23 23/121/24 24/122/25
f 27/123/26 26/124/27 22/120/23 25/119/22
f 27/123/26 28/28/28 29/125/29 26/124/27
f 28/28/28 30/175/30 31/176/31 29/125/29
f 31/139/31 30/30/30 32/32/32 33/138/33
f 32/32/32 34/34/34 35/35/35 33/138/33
f 24/122/25 7/38/9 6/22/5 25/119/22
f 36/126/36 25/119/22 6/22/5 9/37/8
f 37/127/37 36/126/36 9/37/8 2/117/11
f 13/13/13 37/127/37 2/117/11 10/5/2
f 38/128/38 27/123/26 25/119/22 36/126/36
f 38/128/38 39/39/39 28/28/28 27/123/26
f 14/129/15 40/130/40 37/127/37 13/13/13
f 42/131/41 63/132/42 41/133/43
f 42/131/41 38/128/38 36/126/36 37/127/37
f 38/128/38 42/131/41 41/133/43 43/134/44
f 43/134/44 44/135/45 39/39/39 38/128/38
f 44/135/45 30/175/30 28/28/28 39/39/39
f 40/40/40 14/15/15 17/16/16 45/45/46
f 46/46/47 45/45/46 17/16/16 19/19/19
f 47/47/48 46/46/47 19/19/19 21/20/20
f 49/48/49 58/58/50 59/59/51 48/49/52
f 48/49/52 50/50/53 51/51/54 49/48/49
f 61/61/55 62/62/56 34/34/34 32/32/32
f 52/52/57 57/57/58 58/58/50 49/48/49
f 51/51/54 53/53/59 52/52/57 49/48/49
f 60/60/60 61/61/55 32/32/32 30/30/30
f 30/30/30 44/44/45 54/54/61 60/60/60
f 55/55/62 54/54/61 44/44/45 43/43/44
f 55/55/62 52/52/57 53/53/59 54/54/61
f 43/43/44 41/41/43 56/56/63 55/55/62
f 56/56/63 57/57/58 52/52/57 55/55/62
f 56/56/63 41/41/43 63/63/42 64/64/64
f 64/64/64 65/65/65 57/57/58 56/56/63
f 58/58/50 57/57/58 65/65/65
f 59/59/51 58/58/50 46/46/47 47/47/48
f 60/60/60 54/54/61 53/53/59
f 51/51/54 61/61/55 60/60/60 53/53/59
f 50/50/53 62/62/56 61/61/55 51/51/54
f 37/127/37 40/130/40 63/132/42 42/131/41
f 64/64/64 63/63/42 40/40/40
f 45/45/46 65/65/65 64/64/64 40/40/40
f 58/58/50 65/65/65 45/45/46 46/46/47
s 5
f 11/11/66 66/66/67 67/136/68 4/4/69
f 3/3/70 68/68/71 66/66/67 11/11/66
f 8/8/72 69/69/73 68/68/71 3/3/70
f 69/69/73 8/8/72 5/6/74 70/70/75
f 72/71/76 67/136/68 66/66/67 71/72/77
f 73/73/78 71/72/77 66/66/67 68/68/71
f 69/69/73 70/70/75 73/73/78 68/68/71
s 6
f 1/1/79 4/137/80 67/67/81 74/74/82
f 67/67/81 72/179/83 75/75/84 74/74/82
f 1/1/79 74/74/82 76/7/85 12/12/86
f 76/7/85 77/25/87 15/14/88 12/12/86
f 78/76/89 16/17/90 15/14/88 77/25/87
f 79/77/91 18/18/92 16/17/90 78/76/89
f 80/78/93 20/21/94 18/18/92 79/77/91
f 82/79/95 80/78/93 79/77/91 81/80/96
f 81/80/96 79/77/91 78/76/89 83/81/97
f 83/81/97 78/76/89 77/25/87 84/82/98
f 85/83/99 84/82/98 77/25/87 76/7/85
f 87/84/100 82/79/95 81/80/96 86/85/101
f 83/81/97 88/86/102 86/85/101 81/80/96
f 88/86/102 83/81/97 84/82/98 89/87/103
f 90/88/104 89/87/103 84/82/98 85/83/99
f 92/89/105 87/84/100 86/85/101 91/90/106
f 88/86/102 93/91/107 91/90/106 86/85/101
f 89/87/103 90/88/104 93/91/107 88/86/102
f 94/92/108 85/83/99 76/7/85 74/74/82
f 95/93/109 90/88/104 85/83/99 94/92/108
f 91/90/106 96/94/110 97/95/111 92/89/105
f 93/91/107 98/96/112 96/94/110 91/90/106
f 90/88/104 95/93/109 98/96/112 93/91/107
f 95/93/109 94/92/108 74/74/82 75/75/84
f 96/94/110 98/96/112 95/93/109 75/75/84
f 97/95/111 96/94/110 75/75/84
s 7
f 31/31/113 99/97/114 100/98/115 29/29/116
f 99/97/114 31/31/113 33/33/117 101/99/118
f 35/177/119 102/100/120 101/99/118 33/33/117
f 103/101/121 26/27/122 29/29/116 100/98/115
f 26/27/122 103/101/121 104/102/123 22/23/124
f 105/103/125 23/24/126 22/23/124 104/102/123
f 107/104/127 105/103/125 104/102/123 106/105/128
f 108/106/129 106/105/128 104/102/123 103/101/121
f 109/107/130 108/106/129 103/101/121 100/98/115
f 110/108/131 109/107/130 100/98/115 99/97/114
f 101/99/118 111/109/132 110/108/131 99/97/114
f 102/100/120 112/110/133 111/109/132 101/99/118
f 114/111/134 107/104/127 106/105/128 113/112/135
f 116/113/136 111/109/132 112/110/133 115/114/137
f 113/112/135 116/113/136 115/114/137 114/111/134
f 116/113/136 109/107/130 110/108/131 111/109/132
f 108/106/129 109/107/130 113/112/135 106/105/128
f 109/107/130 116/113/136 113/112/135
s 8
f 118/115/138 117/116/139 7/143/140 24/144/141
f 119/145/142 118/115/138 24/144/141 23/146/143
f 105/147/144 107/148/145 114/149/146 23/146/143
f 112/150/147 102/151/148 35/152/149 115/153/150
f 23/146/143 114/149/146 115/153/150 35/152/149
f 119/145/142 23/146/143 35/152/149 34/154/151
f 119/145/142 34/154/151 62/155/152 118/115/138
f 50/156/153 48/157/154 118/115/138 62/155/152
f 118/115/138 48/157/154 59/158/155 117/116/139
f 5/159/156 7/143/140 117/116/139 120/160/157
f 117/116/139 59/158/155 47/161/158 120/160/157
f 73/162/159 70/163/160 5/159/156 71/164/161
f 80/165/162 82/166/163 87/167/164 20/168/165
f 92/169/166 97/170/167 20/168/165 87/167/164
f 71/164/161 5/159/156 120/160/157 72/171/168
f 97/170/167 75/172/169 72/171/168 20/168/165
f 120/160/157 21/173/170 20/168/165 72/171/168
f 21/173/170 120/160/157 47/161/158
